<svg width="167" height="167" viewBox="0 0 167 167" fill="none" xmlns="http://www.w3.org/2000/svg">
<circle cx="83.4284" cy="83.4108" r="83.2136" fill="url(#paint0_linear_136_42)"/>
<rect x="2.42969" y="74.1992" width="18" height="18" fill="#F3D159"/>
<rect width="18" height="18" transform="matrix(-1 0 0 1 164.43 74.5107)" fill="#590BB7"/>
<rect x="20.4297" y="56.374" width="18" height="54" fill="#F2AC1E"/>
<rect width="18" height="54" transform="matrix(-1 0 0 1 146.43 56.6855)" fill="#880998"/>
<rect x="38.4297" y="37.2881" width="18" height="90" fill="#EE8A3E"/>
<rect width="18" height="90" transform="matrix(-1 0 0 1 128.43 37.5996)" fill="#CA2C8C"/>
<rect x="56.4297" y="19.1104" width="18" height="128" fill="#F26353"/>
<rect width="18" height="128" transform="matrix(-1 0 0 1 110.43 19.4219)" fill="#EE547B"/>
<rect x="74.4297" y="1.41016" width="18" height="164" fill="#E42A7D"/>
<rect x="47.5762" y="47.6377" width="18" height="18" fill="white"/>
<rect x="101.234" y="47.6855" width="18" height="18" fill="white"/>
<rect x="74.3809" y="65.6738" width="18" height="18" fill="white"/>
<rect x="39.1914" y="85.4102" width="18" height="18" fill="white"/>
<rect x="57.1914" y="95.8633" width="18" height="18" fill="white"/>
<rect x="75.1914" y="95.8516" width="18" height="18" fill="white"/>
<rect x="93.1914" y="95.8516" width="18" height="18" fill="white"/>
<rect x="111.191" y="86.8516" width="18" height="18" fill="white"/>
<defs>
<linearGradient id="paint0_linear_136_42" x1="483.779" y1="-402.346" x2="10.9388" y2="144.184" gradientUnits="userSpaceOnUse">
<stop stop-color="#45F1F2"/>
<stop offset="1" stop-color="#FFF7DD"/>
</linearGradient>
</defs>
</svg>
